<svg width="24" height="24" viewBox="0 0 24 24" fill="none" xmlns="http://www.w3.org/2000/svg">
<path d="M12 14C11.7348 14 11.4804 13.8946 11.2929 13.7071C11.1054 13.5196 11 13.2652 11 13V5C11 4.73478 11.1054 4.48043 11.2929 4.29289C11.4804 4.10536 11.7348 4 12 4C12.2652 4 12.5196 4.10536 12.7071 4.29289C12.8946 4.48043 13 4.73478 13 5V13C13 13.2652 12.8946 13.5196 12.7071 13.7071C12.5196 13.8946 12.2652 14 12 14Z" fill="black"/>
<path d="M11.9999 21.0001C10.2983 20.9982 8.64159 20.4538 7.27054 19.446C5.8995 18.4382 4.88552 17.0194 4.37594 15.3959C3.86636 13.7724 3.88772 12.0286 4.43693 10.4181C4.98613 8.80755 6.03456 7.41407 7.42989 6.44013C7.53714 6.35699 7.66018 6.29655 7.79153 6.26249C7.92289 6.22842 8.0598 6.22145 8.19393 6.24199C8.32806 6.26253 8.45661 6.31016 8.57175 6.38197C8.68689 6.45378 8.78621 6.54828 8.86366 6.6597C8.94112 6.77112 8.99508 6.89714 9.02227 7.03009C9.04946 7.16303 9.04931 7.30012 9.02183 7.433C8.99435 7.56589 8.9401 7.69179 8.86241 7.80304C8.78471 7.91429 8.68518 8.00857 8.56989 8.08013C7.52195 8.81027 6.73435 9.85577 6.32169 11.0645C5.90902 12.2732 5.89284 13.5821 6.27549 14.8006C6.65814 16.0192 7.41965 17.0838 8.44921 17.8396C9.47878 18.5955 10.7227 19.003 11.9999 19.003C13.2771 19.003 14.521 18.5955 15.5506 17.8396C16.5801 17.0838 17.3416 16.0192 17.7243 14.8006C18.1069 13.5821 18.0908 12.2732 17.6781 11.0645C17.2654 9.85577 16.4778 8.81027 15.4299 8.08013C15.2274 7.92315 15.0929 7.69443 15.0541 7.44116C15.0153 7.18789 15.0752 6.9294 15.2214 6.71901C15.3677 6.50863 15.5891 6.3624 15.84 6.31051C16.0909 6.25862 16.3522 6.30501 16.5699 6.44013C17.9652 7.41407 19.0136 8.80755 19.5628 10.4181C20.1121 12.0286 20.1334 13.7724 19.6238 15.3959C19.1143 17.0194 18.1003 18.4382 16.7292 19.446C15.3582 20.4538 13.7015 20.9982 11.9999 21.0001Z" fill="black"/>
</svg>
