<svg width="13" height="14" viewBox="0 0 13 14" fill="none" xmlns="http://www.w3.org/2000/svg">
<path d="M7.09091 0H5.90909C5.43893 0 4.98803 0.184374 4.65558 0.512563C4.32313 0.840752 4.13636 1.28587 4.13636 1.75V2.33333H0.590909C0.43419 2.33333 0.28389 2.39479 0.173073 2.50419C0.0622563 2.61358 0 2.76196 0 2.91667C0 3.07138 0.0622563 3.21975 0.173073 3.32915C0.28389 3.43854 0.43419 3.5 0.590909 3.5H1.18182V11.6667C1.18182 12.2855 1.43084 12.879 1.87411 13.3166C2.31738 13.7542 2.91858 14 3.54545 14H9.45455C10.0814 14 10.6826 13.7542 11.1259 13.3166C11.5692 12.879 11.8182 12.2855 11.8182 11.6667V3.5H12.4091C12.5658 3.5 12.7161 3.43854 12.8269 3.32915C12.9377 3.21975 13 3.07138 13 2.91667C13 2.76196 12.9377 2.61358 12.8269 2.50419C12.7161 2.39479 12.5658 2.33333 12.4091 2.33333H8.86364V1.75C8.86364 1.28587 8.67687 0.840752 8.34442 0.512563C8.01197 0.184374 7.56107 0 7.09091 0ZM5.31818 1.75C5.31818 1.59529 5.38044 1.44692 5.49125 1.33752C5.60207 1.22812 5.75237 1.16667 5.90909 1.16667H7.09091C7.24763 1.16667 7.39793 1.22812 7.50874 1.33752C7.61956 1.44692 7.68182 1.59529 7.68182 1.75V2.33333H5.31818V1.75ZM10.6364 11.6667C10.6364 11.9761 10.5119 12.2728 10.2902 12.4916C10.0686 12.7104 9.76798 12.8333 9.45455 12.8333H3.54545C3.23202 12.8333 2.93142 12.7104 2.70978 12.4916C2.48815 12.2728 2.36364 11.9761 2.36364 11.6667V3.5H10.6364V11.6667Z" fill="black"/>
<path d="M6.5 5.25C6.34328 5.25 6.19298 5.31146 6.08217 5.42085C5.97135 5.53025 5.90909 5.67862 5.90909 5.83333V10.5C5.90909 10.6547 5.97135 10.8031 6.08217 10.9125C6.19298 11.0219 6.34328 11.0833 6.5 11.0833C6.65672 11.0833 6.80702 11.0219 6.91784 10.9125C7.02865 10.8031 7.09091 10.6547 7.09091 10.5V5.83333C7.09091 5.67862 7.02865 5.53025 6.91784 5.42085C6.80702 5.31146 6.65672 5.25 6.5 5.25Z" fill="black"/>
<path d="M8.27273 10.5C8.27273 10.6547 8.33498 10.8031 8.4458 10.9125C8.55662 11.0219 8.70692 11.0833 8.86364 11.0833C9.02036 11.0833 9.17066 11.0219 9.28147 10.9125C9.39229 10.8031 9.45455 10.6547 9.45455 10.5V5.83333C9.45455 5.67862 9.39229 5.53025 9.28147 5.42085C9.17066 5.31146 9.02036 5.25 8.86364 5.25C8.70692 5.25 8.55662 5.31146 8.4458 5.42085C8.33498 5.53025 8.27273 5.67862 8.27273 5.83333V10.5Z" fill="black"/>
<path d="M4.13636 5.25C3.97965 5.25 3.82935 5.31146 3.71853 5.42085C3.60771 5.53025 3.54546 5.67862 3.54546 5.83333V10.5C3.54546 10.6547 3.60771 10.8031 3.71853 10.9125C3.82935 11.0219 3.97965 11.0833 4.13636 11.0833C4.29308 11.0833 4.44338 11.0219 4.5542 10.9125C4.66502 10.8031 4.72727 10.6547 4.72727 10.5V5.83333C4.72727 5.67862 4.66502 5.53025 4.5542 5.42085C4.44338 5.31146 4.29308 5.25 4.13636 5.25Z" fill="black"/>
</svg>
