<svg width="20" height="20" viewBox="0 0 20 20" fill="none" xmlns="http://www.w3.org/2000/svg">
<path d="M17.3125 16.4375L13.95 13.075C14.875 11.95 15.45 10.5375 15.45 8.975C15.4625 5.4125 12.55 2.5 8.975 2.5C5.4 2.5 2.5 5.4125 2.5 8.975C2.5 12.5375 5.4125 15.45 8.975 15.45C10.5375 15.45 11.95 14.875 13.075 13.95L16.4375 17.3125C16.5625 17.4375 16.725 17.5 16.875 17.5C17.025 17.5 17.2 17.4375 17.3125 17.3125C17.5625 17.075 17.5625 16.675 17.3125 16.4375ZM3.75 8.975C3.75 6.1 6.1 3.75 8.975 3.75C11.85 3.75 14.2 6.1 14.2 8.975C14.2 11.85 11.85 14.2 8.975 14.2C6.1 14.2 3.75 11.8625 3.75 8.975Z" fill="#A9A9A9"/>
</svg>
