<svg width="36" height="36" viewBox="0 0 36 36" fill="none" xmlns="http://www.w3.org/2000/svg">
<g clip-path="url(#clip0_307_3063)">
<path d="M1.12229 24.9377C2.11861 16.9208 6.27157 14.3493 9.99018 12.0709C13.7873 9.74329 17.0716 7.70467 16.6765 0.045105C14.9072 0.171463 13.2074 0.542489 11.6123 1.13002C11.7775 7.20888 8.85072 9.01171 6.01063 10.7525C3.01104 12.5908 0.177505 14.3276 0 21.1815C0.237219 22.4861 0.614315 23.7457 1.12229 24.9377Z" fill="white"/>
<path d="M5.14515 9.38594C7.79219 7.7626 9.93288 6.43463 9.98114 1.82135C5.16315 4.14489 1.53125 8.49177 0.231445 13.7296C1.5656 11.5815 3.42 10.4427 5.14515 9.38594Z" fill="white"/>
<path d="M5.6289 31.2459C6.27348 22.7018 10.0837 19.7199 13.7786 16.833C17.7925 13.6974 21.5856 10.726 21.3721 0.301811C20.3766 0.119115 19.3541 0.0169014 18.3095 0C18.7332 8.58028 14.7373 11.0575 10.8551 13.4366C6.92215 15.8471 2.86326 18.3493 2.55078 27.6185C3.41377 28.9569 4.44853 30.1771 5.6289 31.2459Z" fill="white"/>
<path d="M25.2206 21.8519C28.8869 18.9569 32.3454 16.2012 32.1605 6.59475C31.1732 5.41085 30.0354 4.35652 28.7773 3.4527C28.7258 13.9477 24.5793 17.2282 20.5605 20.4008C16.7781 23.3875 13.2076 26.2133 12.9458 35.3022C14.4542 35.7288 16.0403 35.971 17.6795 36C18.1106 27.4905 21.7188 24.6181 25.2206 21.8519Z" fill="white"/>
<path d="M31.3654 25.6064C28.7396 27.1807 26.4623 28.561 26.1973 34.0966C31.232 31.6072 34.9433 26.9006 36.0001 21.2837C34.8206 23.5324 33.0316 24.6076 31.3654 25.6064Z" fill="white"/>
<path d="M30.5144 24.2327C33.3267 22.5457 35.9844 20.9538 35.6605 13.5517L35.7447 13.5485C35.3128 11.8793 34.6388 10.3043 33.7684 8.85718C33.3815 17.4447 29.7643 20.3292 26.2461 23.1075C22.8981 25.749 19.7398 28.2657 19.3218 35.955C21.1451 35.8278 22.8948 35.4359 24.534 34.8202C24.6338 27.7586 27.7569 25.8858 30.5144 24.2327Z" fill="white"/>
<path d="M19.5375 19.1453C23.558 15.9718 27.3568 12.9658 27.1343 2.40001C25.8516 1.67083 24.4709 1.09054 23.0173 0.682495C23.1343 11.5799 18.897 14.8893 14.7956 18.0934C11.0606 21.0109 7.5359 23.7827 7.19971 32.5175C8.46515 33.4326 9.85411 34.1883 11.3379 34.7622C11.742 25.3256 15.6995 22.1755 19.5375 19.1453Z" fill="white"/>
</g>
<defs>
<clipPath id="clip0_307_3063">
<rect width="36" height="36" fill="white"/>
</clipPath>
</defs>
</svg>
